<?xml version="1.0" encoding="utf-8"?>
<!-- Generator: Adobe Illustrator 27.2.0, SVG Export Plug-In . SVG Version: 6.00 Build 0)  -->
<svg version="1.1" id="Calque_1" xmlns="http://www.w3.org/2000/svg" xmlns:xlink="http://www.w3.org/1999/xlink" x="0px" y="0px"
	 viewBox="0 0 300 300" style="enable-background:new 0 0 300 300;" xml:space="preserve">
<style type="text/css">
	.st0{fill:#FC5656;}
</style>
<g>
	<path class="st0" d="M216.5,83.6c-14.1-14.1-29.2-5-38.6,4.5l-44.5,44.5l-44.5,44.5c-9.4,9.4-19.3,23.7-4.5,38.6
		c14.8,14.8,29.2,5,38.6-4.5l44.5-44.5l44.5-44.5C221.4,112.7,230.6,97.7,216.5,83.6"/>
	<path class="st0" d="M131.4,79.9l18.9,18.9l19.2-19.2c1.3-1.3,2.6-2.5,4-3.7c-2-10.1-7.8-19.3-23.2-19.3
		c-15.4,0-21.2,9.2-23.2,19.4C128.5,77.2,129.9,78.5,131.4,79.9"/>
	<path class="st0" d="M169.4,220l-19.2-19.2l-18.8,18.8c-1.4,1.4-2.9,2.7-4.3,4c2.2,10.3,8.3,19.8,23.1,19.8
		c14.9,0,21-9.5,23.1-19.9C172,222.4,170.7,221.3,169.4,220"/>
	<path class="st0" d="M123.4,125.6H87c-13.3,0-30.4,4.2-30.4,24.1c0,14.9,9.5,21,19.9,23.1C77.7,171.5,123.4,125.6,123.4,125.6"/>
	<path class="st0" d="M224,126.6c-1.2,1.3-46.9,47.3-46.9,47.3H213c13.3,0,30.4-3.1,30.4-24.1C243.4,134.4,234.2,128.6,224,126.6"/>
	<path class="st0" d="M135.3,113.7l6.5-6.5l-18.8-18.8c-9.4-9.4-23.7-19.3-38.6-4.5c-10.9,10.9-8.5,21.5-2.7,30.1
		C83.4,113.8,135.3,113.7,135.3,113.7"/>
	<path class="st0" d="M165.2,185.8l-6.5,6.5l19.2,19.2c9.4,9.4,24.5,18.6,38.6,4.5c10.5-10.5,8.1-21.6,2.3-30.4
		C216.9,185.7,165.2,185.8,165.2,185.8"/>
</g>
</svg>
