<?xml version="1.0" encoding="utf-8"?>
<!-- Generator: Adobe Illustrator 27.2.0, SVG Export Plug-In . SVG Version: 6.00 Build 0)  -->
<svg version="1.1" id="Calque_1" xmlns="http://www.w3.org/2000/svg" xmlns:xlink="http://www.w3.org/1999/xlink" x="0px" y="0px"
	 viewBox="0 0 1000 1000" style="enable-background:new 0 0 1000 1000;" xml:space="preserve">
<style type="text/css">
	.st0{fill:#5C6BC0;}
</style>
<path class="st0" d="M499.9,10.3C223.8,10.3-0.1,235.1-0.1,512.4c0,221.8,143.3,410,342.1,476.4c25,4.6,34.1-10.9,34.1-24.2
	c0-11.9-0.4-43.5-0.7-85.4c-139.1,30.3-168.5-67.3-168.5-67.3c-22.7-58-55.5-73.5-55.5-73.5c-45.4-31.1,3.4-30.5,3.4-30.5
	c50.2,3.6,76.6,51.8,76.6,51.8c44.6,76.7,117.1,54.6,145.6,41.7c4.5-32.4,17.4-54.6,31.8-67.1c-111-12.7-227.8-55.8-227.8-248.1
	c0-54.8,19.5-99.6,51.5-134.8c-5.2-12.7-22.3-63.8,4.9-132.8c0,0,42-13.5,137.5,51.4c39.9-11.1,82.6-16.7,125.2-16.9
	c42.4,0.3,85.3,5.8,125.2,16.9c95.5-65,137.4-51.4,137.4-51.4c27.3,69.1,10.1,120.2,5,132.8c32.1,35.1,51.4,80,51.4,134.8
	c0,192.9-116.9,235.3-228.3,247.7c17.9,15.5,33.9,46.1,33.9,93c0,67.1-0.6,121.3-0.6,137.7c0,13.4,9,29.1,34.4,24.1
	c198.5-66.5,341.6-254.6,341.6-476.4C1000.1,235.1,776.2,10.3,499.9,10.3z"/>
</svg>
