<?xml version="1.0" encoding="utf-8"?>
<!-- Generator: Adobe Illustrator 27.2.0, SVG Export Plug-In . SVG Version: 6.00 Build 0)  -->
<svg version="1.1" id="Calque_1" xmlns="http://www.w3.org/2000/svg" xmlns:xlink="http://www.w3.org/1999/xlink" x="0px" y="0px"
	 viewBox="0 0 1000 1000" style="enable-background:new 0 0 1000 1000;" xml:space="preserve">
<style type="text/css">
	.st0{fill:#1976D2;}
</style>
<g>
	<rect x="-0.1" y="312.5" class="st0" width="223.6" height="687.5"/>
	<path class="st0" d="M832.6,320.6c-2.4-0.8-4.6-1.6-7.1-2.2c-3-0.7-6-1.2-9.1-1.8c-11.9-2.4-24.9-4.1-40.1-4.1l0,0l0,0
		c-130.4,0-213.1,94.8-240.3,131.4V312.5H312.4V1000H536V625c0,0,169-235.4,240.3-62.5c0,154.3,0,437.5,0,437.5h223.6V536.1
		C999.9,432.2,928.7,345.6,832.6,320.6z"/>
	<circle class="st0" cx="109.3" cy="109.4" r="109.4"/>
</g>
</svg>
