<?xml version="1.0" encoding="utf-8"?>
<!-- Generator: Adobe Illustrator 27.2.0, SVG Export Plug-In . SVG Version: 6.00 Build 0)  -->
<svg version="1.1" id="Calque_1" xmlns="http://www.w3.org/2000/svg" xmlns:xlink="http://www.w3.org/1999/xlink" x="0px" y="0px"
	 viewBox="0 0 1000 1000" style="enable-background:new 0 0 1000 1000;" xml:space="preserve">
<style type="text/css">
	.st0{fill:#FC5656;}
</style>
<g>
	<path class="st0" d="M855.9,144.5c-75.5-75.5-156.3-26.8-206.6,24.1L411,406.9L172.8,645.1c-50.3,50.3-103.3,126.9-24.1,206.6
		c79.2,79.2,156.3,26.8,206.6-24.1l238.2-238.2l238.2-238.2C882.1,300.3,931.4,220,855.9,144.5"/>
	<path class="st0" d="M400.3,124.7l101.2,101.2l102.8-102.8c7-7,13.9-13.4,21.4-19.8C615,49.3,583.9,0,501.5,0S388,49.3,377.3,103.9
		C384.8,110.3,392.3,117.2,400.3,124.7"/>
	<path class="st0" d="M603.7,874.7L501,771.9L400.3,872.6c-7.5,7.5-15.5,14.5-23,21.4c11.8,55.1,44.4,106,123.7,106
		c79.8,0,112.4-50.9,123.7-106.5C617.7,887.6,610.7,881.7,603.7,874.7"/>
	<path class="st0" d="M357.5,369.4H162.6c-71.2,0-162.7,22.5-162.7,129c0,79.8,50.9,112.4,106.5,123.7
		C112.8,615.1,357.5,369.4,357.5,369.4"/>
	<path class="st0" d="M896,374.7c-6.4,7-251.1,253.2-251.1,253.2h192.2c71.2,0,162.7-16.6,162.7-129
		C999.9,416.5,950.6,385.4,896,374.7"/>
	<path class="st0" d="M421.2,305.7l34.8-34.8L355.3,170.2C305,119.9,228.5,66.9,148.7,146.1c-58.4,58.4-45.5,115.1-14.5,161.1
		C143.4,306.2,421.2,305.7,421.2,305.7"/>
	<path class="st0" d="M581.3,691.6l-34.8,34.8l102.8,102.8c50.3,50.3,131.2,99.6,206.6,24.1c56.2-56.2,43.4-115.6,12.3-162.7
		C858,691.1,581.3,691.6,581.3,691.6"/>
</g>
</svg>
